Coordinates
version=1
nRows=17
nColumns=40
inDegrees=yes

Units are S.I. units (second, meters, Newtons, ...)
Angles are in degrees.

endheader
time	pelvis_tilt	pelvis_list	pelvis_rotation	pelvis_tx	pelvis_ty	pelvis_tz	hip_flexion_r	hip_adduction_r	hip_rotation_r	knee_angle_r	knee_angle_r_beta	ankle_angle_r	subtalar_angle_r	mtp_angle_r	hip_flexion_l	hip_adduction_l	hip_rotation_l	knee_angle_l	knee_angle_l_beta	ankle_angle_l	subtalar_angle_l	mtp_angle_l	lumbar_extension	lumbar_bending	lumbar_rotation	arm_flex_r	arm_add_r	arm_rot_r	elbow_flex_r	pro_sup_r	wrist_flex_r	wrist_dev_r	arm_flex_l	arm_add_l	arm_rot_l	elbow_flex_l	pro_sup_l	wrist_flex_l	wrist_dev_l
     47.02000000	     -4.02596267	     -4.85455487	     -0.67006833	      0.94276524	      0.93144959	      0.43911559	     30.93728532	     -3.21749149	     -3.36093920	     68.72237222	     68.72237222	      0.51557482	    -14.04806236	     -0.49198631	     16.71580382	     -6.12452624	     -7.64974957	     23.58930124	     23.58930124	     12.98916317	    -11.42256184	      1.19263518	    -11.12281491	      6.14708082	      1.77700283	      5.64516312	    -12.51537364	     -0.42524193	     39.57921701	     45.09942112	      0.00000000	      0.00000000	      9.96626799	    -19.94372008	     -0.97419096	     56.45194288	     45.52846977	      0.00000000	      0.00000000
     47.03285714	     -4.00728117	     -4.78885876	     -1.05851836	      0.94230918	      0.93240806	      0.43893597	     31.93225499	     -3.25892864	     -3.45103833	     67.35139093	     67.35139093	      0.59587116	    -13.57673310	     -0.66431539	     15.77411388	     -5.96936955	     -7.80415296	     22.83965161	     22.83965161	     13.11546162	    -11.69808122	      1.44408041	    -11.23616572	      6.15103982	      2.19479344	      3.97102514	    -12.90657150	     -0.33382010	     37.40958564	     45.18010731	      0.00000000	      0.00000000	     11.44763285	    -20.12322201	     -1.29471856	     57.38840444	     45.60207938	      0.00000000	      0.00000000
     47.04571429	     -3.98405263	     -4.80834648	     -1.42766570	      0.94184536	      0.93329884	      0.43892939	     32.75684559	     -3.12084917	     -3.55780322	     65.67029742	     65.67029742	      0.35197966	    -13.42081583	     -1.39237374	     14.87674324	     -5.93289165	     -7.97880490	     22.15581842	     22.15581842	     13.14714881	    -11.93629650	      1.33569264	    -11.32432714	      6.17660211	      1.87342490	      3.60783345	    -12.70710338	     -0.87112856	     32.84301616	     45.44512958	      0.00000000	      0.00000000	     12.08526575	    -20.85586271	     -1.85149752	     59.11596293	     45.79114811	      0.00000000	      0.00000000
     47.05857143	     -3.98756686	     -4.85502320	     -1.80826742	      0.94149053	      0.93407650	      0.43898097	     33.48842617	     -2.93986258	     -3.68765712	     63.76622256	     63.76622256	      0.33925771	    -12.95104133	     -1.28373487	     13.98197886	     -5.94935447	     -8.27321516	     21.44790167	     21.44790167	     13.33537911	    -11.87606101	      1.40075652	    -11.43197415	      6.26970457	      2.15482212	      1.84366311	    -13.09213056	     -0.95163727	     31.56311264	     45.49937079	      0.00000000	      0.00000000	     13.21566213	    -21.05395708	     -2.42715771	     60.53514633	     45.88727316	      0.00000000	      0.00000000
     47.07142857	     -3.95846459	     -4.85628469	     -2.19389118	      0.94118367	      0.93479862	      0.43917029	     34.01235517	     -2.77594543	     -3.81921468	     61.52166933	     61.52166933	      0.39718381	    -12.37286572	     -1.20062229	     13.07183947	     -5.91677652	     -8.60336834	     20.76429559	     20.76429559	     13.46614778	    -11.86799191	      1.42292096	    -11.58514603	      6.29732818	      2.42091479	      0.25057236	    -13.40074815	     -1.08623256	     30.06911225	     45.56947266	      0.00000000	      0.00000000	     14.25110995	    -21.33725949	     -3.05288245	     62.17641883	     45.98948548	      0.00000000	      0.00000000
     47.08428571	     -4.02288767	     -4.93198480	     -2.52100775	      0.94091367	      0.93534489	      0.43939019	     34.43297080	     -2.55983167	     -4.07601733	     58.86225984	     58.86225984	      0.43794777	    -11.62230777	     -1.07137113	     12.29213350	     -5.96203090	     -8.83321525	     20.11378359	     20.11378359	     13.60446960	    -11.81321187	      1.43687692	    -11.58017630	      6.45824292	      2.40695145	     -1.25218030	    -13.67213100	     -1.19533385	     28.91925889	     45.62010661	      0.00000000	      0.00000000	     15.10688772	    -21.73080263	     -3.57388540	     63.44033817	     46.06595944	      0.00000000	      0.00000000
     47.09714286	     -4.04837750	     -4.89214836	     -2.87796286	      0.94074800	      0.93569748	      0.43978058	     34.63769367	     -2.40792442	     -4.25328333	     55.80296179	     55.80296179	      0.20299847	    -10.87828061	     -2.05258111	     11.41477784	     -5.86804901	     -9.10923030	     19.34500926	     19.34500926	     13.47641049	    -11.93562520	      0.76660561	    -11.67120474	      6.41639512	      1.85629253	     -1.62907421	    -13.50904258	     -2.46250931	     25.96486408	     45.89591038	      0.00000000	      0.00000000	     14.74877972	    -22.26853844	     -5.54986793	     67.07507259	     46.36402890	      0.00000000	      0.00000000
     47.11000000	     -4.13244082	     -4.93276866	     -3.19884036	      0.94056914	      0.93594884	      0.44032177	     34.69413520	     -2.19145308	     -4.60053992	     52.33515092	     52.33515092	      0.37820674	     -9.72092110	     -1.95921524	     10.68231183	     -5.88978666	     -9.38120797	     18.73694826	     18.73694826	     13.64015384	    -11.84870437	      0.77647858	    -11.63683742	      6.52428911	      1.98860524	     -3.14095434	    -13.81767497	     -2.58996652	     25.14324115	     45.93531339	      0.00000000	      0.00000000	     15.69265752	    -22.50066494	     -6.05605323	     68.20356708	     46.43700573	      0.00000000	      0.00000000
     47.12285714	     -4.21984885	     -4.91704719	     -3.53103534	      0.94046491	      0.93599130	      0.44107294	     34.57327555	     -1.99326992	     -4.94640232	     48.50002718	     48.50002718	      0.58165355	     -8.30912753	     -2.12144832	      9.92645059	     -5.85851211	     -9.67054042	     18.09451083	     18.09451083	     13.82411536	    -11.71781333	      0.64952551	    -11.62794916	      6.51051466	      2.25147693	     -4.67544513	    -14.03975100	     -2.82514237	     24.37999541	     45.98355010	      0.00000000	      0.00000000	     16.57276628	    -22.65393667	     -6.72067179	     69.93200994	     46.53326758	      0.00000000	      0.00000000
     47.13571429	     -4.38870304	     -4.87273816	     -3.86205823	      0.94040223	      0.93572961	      0.44195444	     34.24956408	     -1.76424944	     -5.34348298	     44.08654751	     44.08654751	      0.06407700	     -7.12804929	     -4.31637646	      9.26647570	     -5.81046008	    -10.01326125	     17.43421981	     17.43421981	     13.67414086	    -11.71652709	     -0.23694198	    -11.53780747	      6.48554981	      1.81485450	     -5.73379207	    -14.10921616	     -4.33746109	     23.91283502	     46.17471176	      0.00000000	      0.00000000	     16.20177429	    -22.97117202	     -8.64000881	     73.26330586	     46.80718521	      0.00000000	      0.00000000
     47.14857143	     -4.56778266	     -4.89165117	     -4.09102415	      0.94037610	      0.93535069	      0.44298482	     33.77307524	     -1.46727130	     -5.89203513	     39.51033187	     39.51033187	      0.34269832	     -5.43004276	     -4.03661401	      8.71139718	     -5.84160309	    -10.20075278	     16.96124610	     16.96124610	     13.89198027	    -11.59653766	     -0.37415952	    -11.36385127	      6.52984281	      1.86412327	     -7.09481457	    -14.27749685	     -4.48820364	     23.34302035	     46.20552873	      0.00000000	      0.00000000	     17.07747013	    -23.20866832	     -9.05272041	     74.45741852	     46.87178540	      0.00000000	      0.00000000
     47.16142857	     -4.65127937	     -4.78143184	     -4.38155787	      0.94054624	      0.93488871	      0.44414523	     33.02167781	     -1.31285499	     -6.60913058	     34.74519635	     34.74519635	      0.57181190	     -3.08720825	     -4.01955611	      7.96930845	     -5.74355809	    -10.63083737	     16.37537609	     16.37537609	     14.06369268	    -11.32440035	     -0.79852370	    -11.36597090	      6.38341727	      2.13256081	     -8.56826280	    -14.36236333	     -4.92664262	     23.07370115	     46.25245407	      0.00000000	      0.00000000	     17.78440839	    -23.23427996	     -9.78881669	     76.74606986	     46.98690071	      0.00000000	      0.00000000
     47.17428571	     -4.93096162	     -4.74814446	     -4.58023722	      0.94069741	      0.93398711	      0.44550108	     32.30200446	     -0.89555539	     -7.14422304	     29.84418213	     29.84418213	      0.73632293	     -1.35914830	     -3.32184561	      7.57774607	     -5.75580796	    -10.78915352	     16.01929053	     16.01929053	     14.22566254	    -11.21819405	     -1.07427425	    -11.01494657	      6.39803637	      2.02878150	     -9.75811304	    -14.49339422	     -5.15658891	     22.84488182	     46.27488637	      0.00000000	      0.00000000	     18.31382859	    -23.51205141	    -10.22597667	     77.98876120	     47.04990165	      0.00000000	      0.00000000
     47.18714286	     -4.93999809	     -4.59994928	     -4.77703201	      0.94128039	      0.93321219	      0.44686147	     31.21052161	     -0.73790906	     -8.20006386	     25.17909661	     25.17909661	      1.07840201	      1.40276447	     -2.28338102	      6.76809416	     -5.62605192	    -11.18099062	     15.47556912	     15.47556912	     14.33942867	    -10.81732838	     -1.92052764	    -11.08183016	      6.20445082	      2.14232194	    -11.09334621	    -14.58563204	     -5.88938355	     23.18690990	     46.32122345	      0.00000000	      0.00000000	     18.52079174	    -23.53903887	    -11.22873864	     80.73861010	     47.19239754	      0.00000000	      0.00000000
     47.20000000	     -5.11454924	     -4.48709312	     -4.97251375	      0.94190923	      0.93201938	      0.44852688	     30.29524914	     -0.33449010	     -8.84696577	     20.83829160	     20.83829160	      1.09985683	      3.12671572	     -0.94589845	      6.26391061	     -5.56217786	    -11.43432265	     15.17777498	     15.17777498	     14.55556701	    -10.79299386	     -2.31870369	    -10.79942563	      6.07061254	      1.99881680	    -12.14184086	    -14.57103875	     -6.16474335	     23.11994057	     46.34071475	      0.00000000	      0.00000000	     19.03363851	    -23.73022025	    -11.67834684	     82.05720503	     47.25862046	      0.00000000	      0.00000000
     47.21285714	     -5.12912599	     -4.32841036	     -5.14909795	      0.94282119	      0.93086840	      0.45015054	     29.51865860	     -0.15881623	     -9.98489568	     17.70337817	     17.70337817	      2.65249237	      5.78303785	      4.19441022	      5.44425150	     -5.42016237	    -11.78416782	     14.61171240	     14.61171240	     14.30313770	    -10.70856221	     -4.02585340	    -10.80188981	      5.89294190	      1.59952853	    -13.24384169	    -14.52001799	     -8.06692366	     24.29498282	     46.46163037	      0.00000000	      0.00000000	     18.61742718	    -23.82104251	    -13.38830560	     85.20101715	     47.50692991	      0.00000000	      0.00000000
     47.22571429	     -5.14716196	     -4.15645433	     -5.28779725	      0.94392990	      0.92961999	      0.45197718	     28.68593111	      0.10083725	    -10.88283074	     14.86331119	     14.86331119	      2.75643566	      7.24974267	      5.58180545	      4.72224028	     -5.27290165	    -11.98801752	     14.27553284	     14.27553284	     14.61002011	    -10.55770092	     -4.31340068	    -10.66271549	      5.69956258	      1.74078065	    -14.11306443	    -14.45169573	     -8.32428559	     24.07142440	     46.48750946	      0.00000000	      0.00000000	     19.25554857	    -23.80926825	    -13.59592882	     86.37743264	     47.56304522	      0.00000000	      0.00000000
